<svg width="29" height="28" viewBox="0 0 29 28" fill="none" xmlns="http://www.w3.org/2000/svg">
<circle cx="14.6049" cy="13.8158" r="13.3158" stroke="#2FC9AF"/>
<path d="M12.9514 12.5058H13.4514V12.0058V9.97884C13.4514 8.98954 13.7678 8.28158 14.2642 7.81803C14.7657 7.34975 15.5078 7.07812 16.4531 7.07812C17.0904 7.07812 17.6665 7.10767 18.0529 7.13612V8.48136H17.1116C16.487 8.48136 15.9747 8.62017 15.6399 8.99641C15.3154 9.36106 15.2627 9.83641 15.2624 10.2335V10.2339V12.0064V12.5064H15.7624H17.7404L17.5268 14.0791H15.763H15.263V14.5791V20.5518H13.4514V14.5785V14.0785H12.9514H11.1582V12.5058H12.9514Z" fill="#2FC9AF" stroke="#2FC9AF"/>
</svg>
